<svg xmlns="http://www.w3.org/2000/svg" viewBox="0 0 1024 1024" width="1000" height="1000">
	<g transform="scale(0.9765625)">
		<svg xmlns="http://www.w3.org/2000/svg" width="1024" height="1024" viewBox="0 0 1024 1024">
			<clipPath id="logo-clip">
				<rect x="0" y="0" width="1024" height="1024"></rect>
			</clipPath>
			<g clip-path="url(#logo-clip)" fill="#3846F5">
				<path transform="matrix(1.12527 0 0 1.25644 -64.1406 -148.26)" d="M683.396 206.243C687.211 206.89 695.023 206.316 699.248 206.398C717.644 206.752 742.231 203.772 759.365 210.813C768.303 214.548 776.179 220.434 782.294 227.946C786.971 233.784 792.841 243.286 796.98 249.723C803.54 259.955 810.168 270.143 816.864 280.286L886.126 385.109L931.489 453.661C937.312 462.514 949.487 479.68 953.287 488.866C959.394 503.455 959.376 519.887 953.238 534.463C948.684 545.166 935.143 563.51 928.065 574.144L880.799 645.696L814.502 746.504L794.878 776.95C782.872 795.533 778.169 805.182 756.892 813.676C741.125 818.738 716.933 816.78 700.193 817.042C695.108 817.122 688.334 816.581 683.42 817.382C687.819 808.765 699.487 793.247 705.302 784.498L750.319 716.057L884.808 512.102C879.551 503.28 871.91 492.414 866.137 483.705L834.026 434.997L736.217 286.711C724.128 268.585 712.195 250.355 700.421 232.023C695.213 224.063 687.815 214.362 683.396 206.243Z"></path>
				<path transform="matrix(1.12527 0 0 1.25644 -64.1406 -148.26)" d="M291.68 206.258C308.025 205.81 324.381 205.907 340.719 206.548C335.935 215.45 323.81 232.605 317.812 241.634L273.134 308.815C228.309 376.111 183.881 443.67 139.853 511.49C155.978 538.174 175.998 566.959 193.37 593.145L290.3 740.216C306.392 764.656 325.689 792.398 340.877 816.985L316.625 816.959C301.823 817.227 286.236 816.781 271.579 814.29C248.101 810.299 236.845 788.555 224.866 770.009L207.091 742.718L145.614 649.221L97.7564 576.649C89.7781 564.601 81.1162 552.277 73.6186 540.008C68.8898 531.636 66.6049 523.497 66.1059 513.997C65.1937 496.628 72.5349 483.303 82.2307 469.623C86.7003 463.318 91.145 456.672 95.4767 450.243C109.359 429.633 123.118 408.941 136.755 388.169L208.549 278.762L228.522 248.226C246.767 220.355 256.001 207.5 291.68 206.258Z"></path>
				<path transform="matrix(1.12527 0 0 1.25644 -64.1406 -148.26)" d="M426.998 309.756C451.854 309.389 476.714 309.338 501.571 309.604L501.554 517.982C474.578 511.612 447.669 503.553 420.962 497.12C420.439 490.286 420.602 482.786 420.619 475.875C420.846 448.282 420.83 420.688 420.57 393.096C407.708 393.12 394.847 393.231 381.987 393.429C347.608 393.643 320.819 375.691 309.595 342.416C305.887 331.422 305.972 321.884 305.929 310.49L426.998 309.756Z"></path>
				<path transform="matrix(1.12527 0 0 1.25644 -64.1406 -148.26)" d="M636.102 310.356L636.633 310.758C637.067 318.407 636.76 328.216 636.818 336.108C636.983 354.086 637.016 372.064 636.917 390.042C626.674 390.986 618.613 392.405 610.964 400.045C606.569 404.441 603.493 409.981 602.087 416.036C600.299 423.831 601.035 440.242 601.069 449.066L601.053 496.314C594.548 498.464 579.994 501.615 572.647 503.442C555.593 507.647 538.592 512.068 521.65 516.704C521.335 514.479 521.148 512.238 521.09 509.992C520.568 495.284 521.758 478.687 521.438 463.9C520.441 417.87 520.783 382.063 554.489 345.736C575.041 323.585 605.748 311.202 636.102 310.356Z"></path>
				<path transform="matrix(1.12527 0 0 1.25644 -64.1406 -148.26)" d="M420.553 521.23C446.954 526.893 475.316 534.04 501.45 540.898C501.653 604.403 506.53 653.608 448.616 696.99C429.747 709.881 409.899 715.148 387.475 717.072C387.577 689.921 388.149 663.002 387.483 635.858C396.364 633.649 403.557 631.766 410.312 625.196C414.554 621.143 417.553 615.966 418.958 610.271C421.067 601.69 420.544 582.521 420.529 572.926C420.434 555.694 420.442 538.462 420.553 521.23Z"></path>
				<path transform="matrix(1.12527 0 0 1.25644 -64.1406 -148.26)" d="M597.891 522.145C598.583 522 599.21 521.869 599.831 521.99C600.503 522.121 600.973 521.817 600.993 522.901C601.06 526.403 601.05 531.196 601.054 534.557L601.039 575.559C600.866 604.759 598.105 632.964 636.505 635.657L636.805 716.935C612.153 714.125 601.165 712.882 578.609 699.682C570.447 694.418 562.888 688.272 556.069 681.354C536.071 661.399 524.825 636.138 522.143 608.062C521.22 598.41 521.467 587.719 521.47 577.934L521.511 540.341C546.306 534.301 573.003 527.273 597.891 522.145Z"></path>
				<path transform="matrix(1.12527 0 0 1.25644 -64.1406 -148.26)" d="M251.289 569.725C255.317 569.569 259.623 569.622 263.659 569.78C284.672 570.601 306.056 569.155 327.008 569.74C326.858 601.97 322.126 635.856 365.47 636.049L365.518 691.308C365.521 695.788 365.828 712.675 365.162 716.529C363.547 717.229 361.695 716.862 359.884 716.709C294.481 713.448 239.639 651.703 245.031 586.527C245.442 581.562 245.076 575.054 245.005 569.956L251.289 569.725Z"></path>
				<path transform="matrix(1.12527 0 0 1.25644 -64.1406 -148.26)" d="M657.983 310.061C692.044 311.83 718.852 321.318 743.017 346.263C750.669 354.207 757.294 363.08 762.734 372.676C779.561 402.121 779.106 425.84 778.473 458.296C770.395 457.943 758.763 457.701 750.713 458.066C729.902 459.01 712.089 455.63 702.277 435.114C700.516 431.433 698.769 425.586 698.054 421.486C694.325 400.119 680.007 388.791 658.353 389.991C657.727 380.976 658.011 369.55 658.006 360.306L657.983 310.061Z"></path>
				<path transform="matrix(1.12527 0 0 1.25644 -64.1406 -148.26)" d="M744.74 569.219C755.817 569.034 767.353 569.426 778.509 569.478C778.47 599.913 779.135 624.058 763.933 651.831C747.575 681.342 720.195 703.175 687.783 712.553C676.328 715.681 669.913 716.38 658.348 717.044C657.594 710.321 658.186 693.709 658.254 686.514C658.291 669.489 658.427 652.465 658.662 635.441C676.462 634.691 690.457 628.596 696.053 610.501C699.5 599.357 699.946 590.901 708.758 581.813C718.925 571.328 730.873 569.582 744.74 569.219Z"></path>
			</g>
		</svg>
	</g>
</svg>
